/* XPM */
static char *_a5d6a4b7f1f476587c1efe155710e7ekAGkHUg6yBHDi1Sf[] = {
/* columns rows colors chars-per-pixel */
"30 30 4 1 ",
"  c #362C04",
". c #473B0B",
"X c #524307",
"o c #665510",
/* pixels */
"                              ",
"   ........................   ",
"  .. o o o o  XX  o o o o ..  ",
" .. X o o o o XX o o o o X .. ",
" . X X o o o      o o o X X . ",
" .o X X o o o XX o o o X X o. ",
" . o X X o o  XX  o o X X o . ",
" .o o X X o o    o o X X o o. ",
" . o o X X o  XX  o X X o o . ",
" .o o o X X o XX o X X o o o. ",
" . o o o X X      X X o o o . ",
" .o o o o X X XX X X o o o o. ",
" . o o o o X X  X X o o o o . ",
" .X o X o X X    X X o X o X. ",
" . X X X X X      X X X X X . ",
" . X X X X X      X X X X X . ",
" .X o X o X X    X X o X o X. ",
" . o o o o X X  X X o o o o . ",
" .o o o o X X XX X X o o o o. ",
" . o o o X X      X X o o o . ",
" .o o o X X o XX o X X o o o. ",
" . o o X X o  XX  o X X o o . ",
" .o o X X o o    o o X X o o. ",
" . o X X o o  XX  o o X X o . ",
" .o X X o o o XX o o o X X o. ",
" . X X o o o      o o o X X . ",
" .. X o o o o XX o o o o X .. ",
"  .. o o o o  XX  o o o o ..  ",
"   ........................   ",
"                              "
};
